<svg width="223" height="70" viewBox="0 0 223 70" fill="none" xmlns="http://www.w3.org/2000/svg">
<path d="M165.192 68.308C140.978 61.0274 129.885 53.4143 111.3 38.1285V10.1047C114.233 7.73229 115.888 6.61609 118.845 4.7155C125.411 1.04497 129.191 0.382194 136.09 1.48198C146.977 4.32766 153.572 7.68403 167.348 20.8831C173.712 27.4352 177.589 30.8517 185.671 35.9728C190.614 38.0931 193.526 38.9408 199.683 38.1285C203.974 36.7703 206.153 35.6721 209.383 32.7393C212.3 29.1645 213.935 27.1601 213.695 23.0388L213.675 22.9678C212.652 19.2803 212.073 17.191 208.305 14.4161C205.35 12.6279 203.427 12.2355 199.683 12.2604L199.705 12.2446C201.106 11.2293 201.898 10.6553 206.15 10.1047C210.69 9.76295 212.318 10.7585 214.646 12.1833L214.773 12.2604C218.825 15.1271 219.72 16.4455 221.24 20.8831C222.454 25.952 222.02 30.1125 218.006 41.362C213.113 51.2399 208.763 56.0227 197.527 62.9188C188.779 68.3132 181.947 69.7032 165.192 68.308Z" fill="black" stroke="black" stroke-width="1.07784"/>
<path d="M57.4045 68.3111C81.62 61.0302 92.7136 53.4168 111.3 38.1302V10.1051C108.366 7.7326 106.711 6.61635 103.755 4.71567C97.1878 1.04497 93.4082 0.382165 86.5081 1.48201C75.6207 4.32781 69.0252 7.68434 55.2487 20.884C48.8835 27.4364 45.0064 30.8531 36.9243 35.9745C31.9811 38.0948 29.0685 38.9426 22.9115 38.1302C18.6196 36.772 16.4404 35.6737 13.2103 32.7408C10.2932 29.1658 8.65848 27.1614 8.89871 23.0398L8.91838 22.9689C9.94126 19.2812 10.5208 17.1918 14.2882 14.4167C17.2438 12.6284 19.1665 12.236 22.9115 12.2609L22.8897 12.2451C21.4885 11.2298 20.6961 10.6557 16.4441 10.1051C11.9033 9.76335 10.2759 10.7589 7.94683 12.1838L7.8208 12.2609C3.76827 15.1277 2.87257 16.4462 1.35336 20.884C0.138863 25.9532 0.573265 30.1139 4.58708 41.3639C9.48084 51.2422 13.8311 56.0253 25.0673 62.9217C33.8156 68.3163 40.6481 69.7064 57.4045 68.3111Z" fill="black" stroke="black" stroke-width="1.07784"/>
</svg>
